<svg xmlns="http://www.w3.org/2000/svg" shape-rendering="geometricPrecision" text-rendering="geometricPrecision" image-rendering="optimizeQuality" fill-rule="evenodd" clip-rule="evenodd" viewBox="0 0 421 511.605"><path fill="#E44B4D" d="M95.705.014h199.094L421 136.548v317.555c0 31.54-25.961 57.502-57.502 57.502H95.705c-31.55 0-57.502-25.873-57.502-57.502V57.515C38.203 25.886 64.076.014 95.705.014z"/><path fill="#CD4445" d="M341.028 133.408h-.019L421 188.771v-52.066h-54.357c-9.458-.15-17.998-1.274-25.615-3.297z"/><path fill="#FBCFD0" d="M294.8 0L421 136.533v.172h-54.357c-45.068-.718-69.33-23.397-71.843-61.384V0z"/><path fill="#CD4445" fill-rule="nonzero" d="M0 431.901V253.404l.028-1.261c.668-16.446 14.333-29.706 30.936-29.706h7.238v50.589h342.975c12.862 0 23.373 10.51 23.373 23.371v135.504c0 12.83-10.543 23.373-23.373 23.373H23.373C10.541 455.274 0 444.75 0 431.901z"/><path fill="#963232" fill-rule="nonzero" d="M143.448 240.364a8.496 8.496 0 01-8.496-8.497 8.496 8.496 0 018.496-8.497h163.176a8.496 8.496 0 018.496 8.497 8.496 8.496 0 01-8.496 8.497H143.448zm0-59.176a8.496 8.496 0 010-16.993h172.304a8.496 8.496 0 110 16.993H143.448z"/><path fill="#fff" fill-rule="nonzero" d="M11.329 276.171v154.728c0 7.793 6.38 14.178 14.179 14.178H380.175c7.799 0 14.178-6.379 14.178-14.178V297.405c0-7.798-6.388-14.178-14.178-14.178H37.892c-12.618-.096-19.586-1.638-26.563-7.056z"/><path fill="#1A1A1A" fill-rule="nonzero" d="M101.163 401.572H73.778l4.98-81.894h34.199l10.22 41.669h.916l10.22-41.669h34.2l4.979 81.894h-27.385l-1.573-39.701h-.917l-9.959 39.701h-20.046l-10.09-39.701h-.785l-1.574 39.701zm127.36-19.785h-17.034v19.785h-26.205v-81.894h41.274c18.781 0 28.171 10.09 28.171 30.269 0 11.094-2.445 19.306-7.337 24.634-1.834 2.008-4.367 3.712-7.599 5.11-3.233 1.396-6.988 2.096-11.27 2.096zm-17.034-41.144v20.179h6.029c3.144 0 5.437-.327 6.878-.982 1.443-.656 2.162-2.162 2.162-4.522v-9.171c0-2.359-.719-3.866-2.162-4.521-1.441-.655-3.734-.983-6.878-.983h-6.029zm92.247 7.863v-8.518c-2.62-.437-6.857-.655-12.71-.655-5.853 0-13.147.919-21.881 2.751l-3.408-19.391c10.657-3.321 20.964-4.98 30.923-4.98 8.562 0 14.764.525 18.606 1.574 3.843 1.046 6.684 2.314 8.516 3.799 4.018 3.407 6.029 8.559 6.029 15.462 0 8.734-3.625 15.024-10.875 18.868v.655c8.646 3.582 12.971 10.088 12.971 19.522 0 4.631-.72 8.583-2.163 11.858-1.441 3.278-3.254 5.81-5.437 7.6-2.184 1.792-5.066 3.211-8.647 4.26-5.328 1.484-12.819 2.227-22.472 2.227-9.652 0-19.327-1.135-29.023-3.406l3.668-21.62c8.3 2.008 15.332 3.012 21.097 3.012 5.765 0 10.7-.262 14.806-.786v-8.385l-22.539-2.227v-18.999l22.539-2.621z"/></svg>
